<?xml version="1.0"?>
<svg xmlns="http://www.w3.org/2000/svg" id="Layer_2" data-name="Layer 2" viewBox="0 0 128 128" width="512" height="512"><path d="M128,45.67a1.749,1.749,0,0,0-1.75-1.75H54.75V39.335A5.756,5.756,0,0,0,49,33.585H37.083V15.75a4.254,4.254,0,0,1,4.25-4.25H68.667a4.254,4.254,0,0,1,4.25,4.25v8.917a1.749,1.749,0,0,0,1.75,1.75h8a1.749,1.749,0,0,0,1.75-1.75V15.75A15.767,15.767,0,0,0,68.667,0H41.333a15.767,15.767,0,0,0-15.75,15.75V33.585H13.667a5.756,5.756,0,0,0-5.75,5.75V43.92H1.75A1.749,1.749,0,0,0,0,45.67V75.333A12.759,12.759,0,0,0,11,87.948v26.469H3.75A3.755,3.755,0,0,0,0,118.167v6.083A3.755,3.755,0,0,0,3.75,128H87.667a3.755,3.755,0,0,0,3.75-3.75v-6.083a3.755,3.755,0,0,0-3.75-3.75h-9.69l8.834-26.334H91.25a36.849,36.849,0,0,0,36.014-29.4v0A37.049,37.049,0,0,0,128,51.333ZM29.083,15.75A12.263,12.263,0,0,1,41.333,3.5H68.667a12.263,12.263,0,0,1,12.25,12.25v7.167h-4.5V15.75A7.759,7.759,0,0,0,68.667,8H41.333a7.759,7.759,0,0,0-7.75,7.75V33.585h-4.5ZM11.417,39.335a2.253,2.253,0,0,1,2.25-2.25H49a2.253,2.253,0,0,1,2.25,2.25V43.92H11.417ZM3.5,47.42h121v3.913a33.624,33.624,0,0,1-.413,5.25H3.5Zm84.417,70.747v6.083a.25.25,0,0,1-.25.25H3.75a.25.25,0,0,1-.25-.25v-6.083a.25.25,0,0,1,.25-.25H87.667A.25.25,0,0,1,87.917,118.167Zm-13.632-3.75H14.5V88.083H83.119ZM91.25,84.583H12.75a9.26,9.26,0,0,1-9.25-9.25V60.083H123.336A33.354,33.354,0,0,1,91.25,84.583Z"/></svg>
