<?xml version="1.0"?>
<svg xmlns="http://www.w3.org/2000/svg" id="Layer_1" data-name="Layer 1" viewBox="0 0 128 128" width="512" height="512"><path d="M32.908,76.606h9.368a1.751,1.751,0,0,0,1.75-1.75V70.172a6.434,6.434,0,0,0-12.868,0v4.684A1.751,1.751,0,0,0,32.908,76.606Zm1.75-6.434a2.934,2.934,0,0,1,5.868,0v2.934H34.658Z"/><path d="M50.514,76.606h9.367a1.75,1.75,0,0,0,1.75-1.75V70.172a6.434,6.434,0,1,0-12.867,0v4.684A1.75,1.75,0,0,0,50.514,76.606Zm1.75-6.434a2.934,2.934,0,1,1,5.867,0v2.934H52.264Z"/><path d="M68.119,76.606h9.367a1.75,1.75,0,0,0,1.75-1.75V70.172a6.434,6.434,0,1,0-12.867,0v4.684A1.75,1.75,0,0,0,68.119,76.606Zm1.75-6.434a2.934,2.934,0,1,1,5.867,0v2.934H69.869Z"/><path d="M85.724,76.606h9.368a1.75,1.75,0,0,0,1.75-1.75V70.172a6.434,6.434,0,0,0-12.868,0v4.684A1.75,1.75,0,0,0,85.724,76.606Zm1.75-6.434a2.934,2.934,0,0,1,5.868,0v2.934H87.474Z"/><path d="M109.273,101.881a8.285,8.285,0,0,0-4.963-7.346V58.612h4.148a1.749,1.749,0,0,0,1.75-1.75V46.24a1.749,1.749,0,0,0-1.75-1.75H104.31V40.274a1.751,1.751,0,0,0-1.046-1.6L65.75,22.191V15.75a1.75,1.75,0,0,0-3.5,0v6.441L24.736,38.672a1.751,1.751,0,0,0-1.046,1.6V44.49H19.541a1.75,1.75,0,0,0-1.75,1.75V56.862a1.75,1.75,0,0,0,1.75,1.75H23.69V94.535a8.286,8.286,0,0,0-4.963,7.346A6.142,6.142,0,0,0,20.142,114h87.716a6.142,6.142,0,0,0,1.415-12.119ZM27.19,41.417,64,25.245l36.81,16.172V44.49H27.19Zm-5.9,6.573h85.417v7.122H21.291ZM100.81,58.612V93.846a8.333,8.333,0,0,0-7.9,6.542A6.884,6.884,0,0,0,88.479,110.5H81.068V88.457a1.75,1.75,0,0,0-1.75-1.75H48.682a1.75,1.75,0,0,0-1.75,1.75V110.5H39.52a6.884,6.884,0,0,0-4.433-10.112,8.334,8.334,0,0,0-7.9-6.542V58.612ZM65.75,90.207H77.568V110.5H65.75ZM62.25,110.5H50.432V90.207H62.25ZM17.5,107.858a2.643,2.643,0,0,1,2.628-2.642l.306.039a1.751,1.751,0,0,0,1.9-2.114,4.859,4.859,0,0,1-.114-1.027A4.774,4.774,0,0,1,31.769,102a1.754,1.754,0,0,0,1.785,1.708,3.4,3.4,0,0,1-.028,6.79H20.142A2.645,2.645,0,0,1,17.5,107.858Zm90.358,2.642H94.474a3.4,3.4,0,0,1-.028-6.79A1.714,1.714,0,0,0,96.231,102a4.773,4.773,0,1,1,9.431,1.141,1.751,1.751,0,0,0,1.9,2.113l.293-.038a2.642,2.642,0,1,1,0,5.283Z"/></svg>
