<svg id="Layer_2" height="512" viewBox="0 0 128 128" width="512" xmlns="http://www.w3.org/2000/svg" data-name="Layer 2"><g fill="rgb(0,0,0)"><path d="m77.334 43.647a33.678 33.678 0 1 0 -9.856 23.831 33.473 33.473 0 0 0 9.856-23.831zm-33.687 30.203a30.178 30.178 0 1 1 21.353-8.85 30 30 0 0 1 -21.353 8.85z"/><path d="m127.487 113.849-35.187-35.184a1.748 1.748 0 0 0 -2.474 0l-1.049 1.049-10.068-10.073a43.564 43.564 0 1 0 -9.061 9.074l10.065 10.066-1.048 1.048a1.749 1.749 0 0 0 0 2.475l35.183 35.183a1.749 1.749 0 0 0 2.475 0l11.164-11.164a1.748 1.748 0 0 0 0-2.474zm-31.187-8.859 8.69-8.69 4.862 4.861-8.69 8.69zm-81.041-32.954a40.147 40.147 0 1 1 59.746-3.325 40.862 40.862 0 0 1 -2.969 3.325 40.4 40.4 0 0 1 -3.34 2.981 40.14 40.14 0 0 1 -53.433-2.985zm57.121 4.464a42.913 42.913 0 0 0 4.12-4.119l9.807 9.807-4.118 4.118zm18.687 5.879 11.449 11.449-8.69 8.69-11.449-11.452zm24.018 41.4-11.448-11.449 8.689-8.689 11.449 11.449z"/></g></svg>