<svg id="Layer_1" height="512" viewBox="0 0 128 128" width="512" xmlns="http://www.w3.org/2000/svg" data-name="Layer 1"><path d="m113.854 35.636h-8.738a1.745 1.745 0 0 0 -1.722-1.477h-8.936a1.745 1.745 0 0 0 -1.722 1.477h-11.486v-4.25h.562a1.749 1.749 0 0 0 1.75-1.75v-5.5a1.75 1.75 0 0 0 -1.75-1.75h-35.625a1.751 1.751 0 0 0 -1.75 1.75v5.5a1.75 1.75 0 0 0 1.75 1.75h.563v4.25h-11.486a1.745 1.745 0 0 0 -1.722-1.477h-8.936a1.745 1.745 0 0 0 -1.722 1.477h-8.738a1.75 1.75 0 0 0 -1.75 1.75v65a1.751 1.751 0 0 0 1.75 1.75h8.738a1.746 1.746 0 0 0 1.722 1.477h8.936a1.747 1.747 0 0 0 1.723-1.477h57.47a1.747 1.747 0 0 0 1.723 1.477h8.936a1.746 1.746 0 0 0 1.722-1.477h8.738a1.751 1.751 0 0 0 1.75-1.75v-65a1.75 1.75 0 0 0 -1.75-1.75zm-78.562 3.5h57.416v61.5h-57.416zm12.645-13.25h32.125v2h-32.125zm2.313 5.5h27.5v4.25h-27.5zm-34.35 7.75h6.96v61.5h-6.96zm10.46-1.477h5.436v64.455h-5.44zm75.288 64.455h-5.44v-64.455h5.436zm10.46-1.477h-6.96v-61.5h6.96z"/></svg>