<svg height="512" viewBox="0 0 128 128" width="512" xmlns="http://www.w3.org/2000/svg"><g><path d="m126.742 105.367-55.31-91.7a8.679 8.679 0 0 0 -14.864 0l-55.31 91.7a8.679 8.679 0 0 0 7.432 13.162h110.62a8.679 8.679 0 0 0 7.432-13.162zm-2.922 7.033a5.12 5.12 0 0 1 -4.51 2.633h-110.62a5.179 5.179 0 0 1 -4.435-7.853l55.31-91.7a5.179 5.179 0 0 1 8.87 0l55.31 91.7a5.116 5.116 0 0 1 .075 5.22z"/><path d="m65.5 23.191a1.752 1.752 0 0 0 -3 0l-49.87 82.684a1.749 1.749 0 0 0 1.5 2.654h99.744a1.749 1.749 0 0 0 1.5-2.654zm-48.272 81.838 46.772-77.545 46.772 77.545z"/><path d="m58.25 51.45v30.219a1.75 1.75 0 0 0 1.75 1.75h8a1.75 1.75 0 0 0 1.75-1.75v-30.219a1.75 1.75 0 0 0 -1.75-1.75h-8a1.75 1.75 0 0 0 -1.75 1.75zm3.5 1.75h4.5v26.719h-4.5z"/><path d="m68 88.458h-8a1.75 1.75 0 0 0 -1.75 1.75v7.219a1.75 1.75 0 0 0 1.75 1.75h8a1.75 1.75 0 0 0 1.75-1.75v-7.219a1.75 1.75 0 0 0 -1.75-1.75zm-1.75 7.219h-4.5v-3.719h4.5z"/></g></svg>